<?xml version="1.0" encoding="utf-8"?>
<!-- Generator: Adobe Illustrator 19.2.1, SVG Export Plug-In . SVG Version: 6.00 Build 0)  -->
<svg version="1.1" id="Layer_2" xmlns="http://www.w3.org/2000/svg" xmlns:xlink="http://www.w3.org/1999/xlink" x="0px" y="0px"
	 width="278px" height="364.1px" viewBox="0 0 278 364.1" style="enable-background:new 0 0 278 364.1;" xml:space="preserve">
<style type="text/css">
	.st0{fill:#FFFFFF;}
</style>
<g>
	<path d="M51.8,104.2l18.8-20.3l12.1,3.4c0,0,33.6-66.5,64.5-80.7c0,0,19.5-14.9,36.3,0c0,0,21.4,11.5,1.9,48.9
		c0,0-19.1,47-68.1,45.5c0,0-6.9,42.1-19.9,52.4c0,0-18.4,27.9-25.6,31.7c0,0,14.5,8.4,35.9,6.5c0,0,56.6,16.4,66.1,7.3
		c0,0,13.4,31.7,21.4,37.5c0,0-37.5,11.5-68.1-1.9c0,0-46.6-24.5-76.1-24.5c0,0-27.2,0-38.7,7.3L0,215.4v-20.8
		c0,0,27.7-4.4,46.1-32.3c0,0,26.4-41.1,26.4-52.1L51.8,104.2z"/>
	<path class="st0" d="M136.9,56.4c0,0,15.7-21.6,20.7-24.8c0,0,6.3-5.3,8.1,0c0,0,3.1,16-10.7,27.9c0,0-6.3,11-20.4,12.2
		c0,0-4.4,3.1-3.8-4.1L136.9,56.4z"/>
</g>
<path d="M241.1,166.7l30.9-10.8c0,0-30.9-34.4-74.2-22.1c0,0-40.8,5.2-43.8,45.6c0,0-1.5,13.8,0,18.3c0,0-46,30.3-56.8,59.8
	c0,0-19.8,32.2-7.5,62.1c0,0,11.6,45.2,56.5,44.5c0,0,62.1,1.1,85.6-24.7c0,0,50.1-41.5,46-74.4c0,0,3.7-44.1-33.7-52.4
	c0,0-49.4-1.1-62.3,31.4l-11.7,20.6l16.5,1.9c0,0,17.4-35.9,42.7-30.7c0,0,32.1,4.9,15.6,49c0,0-13.5,46-63,49.4
	c0,0-58.1,8.6-54.4-45.6c0,0,14.6-49.7,48.2-68.1c0,0,37.8-25.1,59.1-22.1l8.6-20.2c0,0-31.8-1.9-45.2,4.9c0,0-7.1-21.3,16.5-28.8
	C214.5,154.3,231.3,149.1,241.1,166.7z"/>
</svg>
