<?xml version="1.0" encoding="utf-8"?>
<!-- Generator: Adobe Illustrator 19.2.1, SVG Export Plug-In . SVG Version: 6.00 Build 0)  -->
<svg version="1.1" id="Layer_1" xmlns="http://www.w3.org/2000/svg" xmlns:xlink="http://www.w3.org/1999/xlink" x="0px" y="0px"
	 width="311.2px" height="423.3px" viewBox="0 0 311.2 423.3" style="enable-background:new 0 0 311.2 423.3;" xml:space="preserve"
	>
<style type="text/css">
	.st0{fill:#D18129;}
</style>
<g id="Layer_1_1_">
</g>
<g id="Layer_2">
	<path class="st0" d="M248.1,116c0,0,21.6-46.2,11.6-65.7c0,0-4.2-15.2-17,1.4c0,0-12.7,18.7-33.7,13.8c0,0-21-3.1-26.6-25.8
		L180.8,0h-53.2c0,0-54.4-0.3-76,39.1c0,0-21.6,28.1,9.4,76.4c0,0,10,16.6,7.8,32.1c0,0-0.6,15.5-30.5,47.7
		c0,0-43.8,47.1-37.7,102.6c0,0,0.6,65.3,56.6,100.9c0,0,47.1,29.4,115.9,23.8c0,0,58.2,0,103.2-38.3c0,0,36.1-29.9,34.9-91.4
		c0,0-3.3-61.9-32.2-90.9H144.3v91h25v-66h97c0,0,72.9,129.4-55.4,167.4c0,0-144.2,27.5-175.1-56.1c0,0-27.7-77.8,21.7-135.4
		c0,0,38.1-38.1,34.8-62.6c0,0-3.8-23.4-10.3-32.1c0,0-20.7-30.4-19.6-46.1c0,0,8.7-45,62-45h37.9v18c0,0,4.8,36.7,22.2,40.5
		c0,0,32.7,16.3,52.3,1.1l8.2-4.9c0,0-6.6,40.3-17,44.3h20.1V116z"/>
</g>
</svg>
