<?xml version="1.0" encoding="utf-8"?>
<!-- Generator: Adobe Illustrator 19.2.1, SVG Export Plug-In . SVG Version: 6.00 Build 0)  -->
<svg version="1.1" id="Layer_1" xmlns="http://www.w3.org/2000/svg" xmlns:xlink="http://www.w3.org/1999/xlink" x="0px" y="0px"
	 viewBox="0 0 612 792" style="enable-background:new 0 0 612 792;" xml:space="preserve">
<style type="text/css">
	.st0{fill:#3E2512;}
	.st1{fill:#D88D73;}
	.st2{stroke:#000000;stroke-miterlimit:10;}
	.st3{fill:none;stroke:#3E2512;stroke-width:11;stroke-miterlimit:10;}
	.st4{fill:#3E2512;stroke:#3E2512;stroke-width:4;stroke-miterlimit:10;}
</style>
<path class="st0" d="M421.4,321.8c0-23.2-14.8-43-35.6-50.4c0.8-3.6,1.2-7.3,1.2-11.2c0-29.5-23.9-53.4-53.4-53.4
	c-3.1,0-6.2,0.3-9.2,0.8c-9.6-14.2-25.9-23.5-44.3-23.5c-18.4,0-34.7,9.3-44.3,23.5c-3-0.5-6-0.8-9.2-0.8
	c-29.5,0-53.4,23.9-53.4,53.4c0,3.7,0.4,7.2,1.1,10.7c-21.5,6.9-37,27.1-37,50.9c0,19.1,10.1,35.9,25.2,45.4
	c-3.3,6.9-5.1,14.7-5.1,22.9c0,29.5,23.9,53.4,53.4,53.4s53.4-23.9,53.4-53.4c0-19.1-10.1-35.9-25.2-45.4c3.3-6.9,5.1-14.7,5.1-22.9
	c0-3.7-0.4-7.2-1.1-10.7c11.5-3.7,21.2-11.2,27.8-20.9c3,0.5,6,0.8,9.2,0.8s6.2-0.3,9.2-0.8c6.3,9.4,15.6,16.6,26.4,20.4
	c-0.8,3.6-1.2,7.3-1.2,11.2c0,8.8,2.1,17.1,5.9,24.4c-13.8,9.7-22.9,25.7-22.9,43.8c0,29.5,23.9,53.4,53.4,53.4s53.4-23.9,53.4-53.4
	c0-8.8-2.1-17.1-5.9-24.4C412.3,356,421.4,339.9,421.4,321.8z"/>
<rect x="241.1" y="382.3" class="st1" width="78.2" height="84.1"/>
<ellipse class="st1" cx="279.3" cy="341.6" rx="53.4" ry="76.3"/>
<path class="st2" d="M276.9,317c0,12.8-15.5,35.9-34.7,35.9s-21.5-10.4-21.5-23.1s2.3-23.1,21.5-23.1S276.9,304.3,276.9,317z"/>
<path class="st2" d="M281.8,317c0,12.8,15.5,35.9,34.7,35.9c19.2,0,21.5-10.4,21.5-23.1s-2.3-23.1-21.5-23.1
	C297.3,306.7,281.8,304.3,281.8,317z"/>
<ellipse class="st3" cx="279.8" cy="387.5" rx="33.5" ry="30.4"/>
<polygon class="st4" points="301.9,412.5 255.7,410.7 246.3,387.5 313.2,387.5 "/>
<circle class="st0" cx="279.3" cy="249.1" r="53.4"/>
<rect x="274" y="314.6" class="st2" width="10.3" height="1.4"/>
<rect x="274" y="319.5" class="st2" width="10.3" height="1.4"/>
</svg>
