<?xml version="1.0" encoding="utf-8"?>
<!-- Generator: Adobe Illustrator 19.2.1, SVG Export Plug-In . SVG Version: 6.00 Build 0)  -->
<svg version="1.1" id="Layer_1" xmlns="http://www.w3.org/2000/svg" xmlns:xlink="http://www.w3.org/1999/xlink" x="0px" y="0px"
	 width="185.1px" height="334.8px" viewBox="0 0 185.1 334.8" style="enable-background:new 0 0 185.1 334.8;" xml:space="preserve"
	>
<style type="text/css">
	.st0{fill:none;stroke:#F06BA8;stroke-width:14;stroke-miterlimit:10;}
	.st1{fill:none;stroke:#FACFE2;stroke-width:4;stroke-miterlimit:10;}
</style>
<path class="st0" d="M64,107.8v-28c0,0,2-29.8,26.2-28.3c24.2,1.4,24.8,25,24.8,25v27.3c0,0,11.6,19,22.9,19H173
	c0,0,5.5-4.5,5.1-14.9l0-31.5c0,0-9.3-69.8-86.3-69.3S7,79.7,7,79.7v157c0,0,6.5,88.4,72.6,88.9c0,0,41,6.6,60.8-34l14.1,27.2
	c0,0,2.3,7.8,8,8.8H173c0,0-3-10.4-2-20.5V170.8c0,0,13.1,2-0.2-1H106c0,0-18-12.7-17-2v28c0,0,9,20,18.8,19H121c0,0,0-13.6,0-1.8
	v23.8c0,0,7.5,35.6-22.2,35.3s-29.4-32.5-29.4-32.5L64,107.8z"/>
<path class="st1" d="M66,108.8v-28c0,0,2-29.8,26.2-28.3c24.2,1.4,24.8,25,24.8,25v27.3c0,0,8.6,16,19.9,16H172c0,0,5.5-3,5.1-13.4
	l0-30.8c0,0-7.8-69.4-84.8-69C15.4,8.1,9,80.7,9,80.7v157c0,0,5,88.4,71.1,88.9c0,0,40.2,6.6,60.1-34l13.7,25.7c0,0,1.9,6.3,7.6,7.3
	H172c0,0,0-7.4,1-17.5V171.8c0,0,10.1-1-3.2-4H105c0,0-15-9.7-14,1v28c0,0,6,17,15.8,16H123c0,0,0-10.6,0,1.2v23.8
	c0,0,6,35.6-23.7,35.3s-28.6-32.5-28.6-32.5L66,108.8z"/>
</svg>
