<?xml version="1.0" encoding="utf-8"?>
<!-- Generator: Adobe Illustrator 21.0.0, SVG Export Plug-In . SVG Version: 6.00 Build 0)  -->
<svg version="1.1" id="Layer_1" xmlns="http://www.w3.org/2000/svg" xmlns:xlink="http://www.w3.org/1999/xlink" x="0px" y="0px"
	 viewBox="0 0 135.2 128.8" style="enable-background:new 0 0 135.2 128.8;" xml:space="preserve">
<style type="text/css">
	.st0{fill:#FF0000;}
</style>
<g>
	<polygon class="st0" points="47.7,85.1 3.2,78.9 35.3,47.4 27.5,3.1 67.4,23.8 107,2.8 99.6,47.1 132,78.3 87.5,85 67.8,125.4 	"/>
	<path d="M105.1,5.5l-6.8,40.6L98,47.6l1.1,1.1l29.6,28.6l-40.7,6.1l-1.6,0.2L85.8,85l-18,37L49.4,85.2l-0.7-1.4l-1.6-0.2L6.4,77.8
		L35.8,49l1.1-1.1l-0.3-1.6L29.5,5.8l36.5,19l1.4,0.7l1.4-0.7L105.1,5.5 M109,0L67.3,22.1L25.5,0.4l8.2,46.5L0,79.9l46.7,6.6
		l21.1,42.2l20.7-42.4l46.7-7l-33.9-32.8L109,0L109,0z"/>
</g>
</svg>
